<svg xmlns="http://www.w3.org/2000/svg" viewBox="0 0 24 24" aria-hidden="true">
  <path fill="currentColor" d="M12 2c-5.52 0-10 4.59-10 10.25 0 4.52 2.87 8.35 6.85 9.7.5.1.68-.22.68-.49 0-.24-.01-.88-.01-1.73-2.79.63-3.38-1.1-3.38-1.1-.46-1.2-1.12-1.52-1.12-1.52-.92-.64.07-.63.07-.63 1.02.07 1.56 1.09 1.56 1.09.9 1.6 2.36 1.14 2.94.87.09-.68.35-1.14.64-1.4-2.23-.26-4.58-1.14-4.58-5.06 0-1.12.39-2.03 1.02-2.75-.1-.26-.44-1.3.1-2.71 0 0 .83-.27 2.73 1.05a9.2 9.2 0 0 1 2.49-.35c.85 0 1.71.12 2.49.35 1.9-1.32 2.73-1.05 2.73-1.05.54 1.41.2 2.45.1 2.71.64.72 1.02 1.63 1.02 2.75 0 3.93-2.35 4.8-4.59 5.06.36.33.69.97.69 1.96 0 1.41-.01 2.55-.01 2.9 0 .27.18.6.69.49A10.2 10.2 0 0 0 22 12.25C22 6.59 17.52 2 12 2Z"/>
</svg>
